<svg width="36" height="36" viewBox="0 0 36 36" fill="none" xmlns="http://www.w3.org/2000/svg">
<g id="Group">
<g id="Layer_56">
<path id="Shape" fill-rule="evenodd" clip-rule="evenodd" d="M5.75 0.5H11C13.8995 0.5 16.25 2.8505 16.25 5.75V11C16.25 13.8995 13.8995 16.25 11 16.25H5.75C2.8505 16.25 0.5 13.8995 0.5 11V5.75C0.5 2.8505 2.8505 0.5 5.75 0.5ZM11 12.75C11.9665 12.75 12.75 11.9665 12.75 11V5.75C12.75 4.7835 11.9665 4 11 4H5.75C4.7835 4 4 4.7835 4 5.75V11C4 11.9665 4.7835 12.75 5.75 12.75H11ZM11 19.75H5.75C2.8505 19.75 0.5 22.1005 0.5 25V30.25C0.5 33.1495 2.8505 35.5 5.75 35.5H11C13.8995 35.5 16.25 33.1495 16.25 30.25V25C16.25 22.1005 13.8995 19.75 11 19.75ZM11 32C11.9665 32 12.75 31.2165 12.75 30.25V25C12.75 24.0335 11.9665 23.25 11 23.25H5.75C4.7835 23.25 4 24.0335 4 25V30.25C4 31.2165 4.7835 32 5.75 32H11ZM30.25 19.75H25C22.1005 19.75 19.75 22.1005 19.75 25V30.25C19.75 33.1495 22.1005 35.5 25 35.5H30.25C33.1495 35.5 35.5 33.1495 35.5 30.25V25C35.5 22.1005 33.1495 19.75 30.25 19.75ZM30.25 32C31.2165 32 32 31.2165 32 30.25V25C32 24.0335 31.2165 23.25 30.25 23.25H25C24.0335 23.25 23.25 24.0335 23.25 25V30.25C23.25 31.2165 24.0335 32 25 32H30.25ZM30.25 0.5H25C22.1005 0.5 19.75 2.8505 19.75 5.75V11C19.75 13.8995 22.1005 16.25 25 16.25H30.25C33.1495 16.25 35.5 13.8995 35.5 11V5.75C35.5 2.8505 33.1495 0.5 30.25 0.5ZM30.25 12.75C31.2165 12.75 32 11.9665 32 11V5.75C32 4.7835 31.2165 4 30.25 4H25C24.0335 4 23.25 4.7835 23.25 5.75V11C23.25 11.9665 24.0335 12.75 25 12.75H30.25Z" fill="#C0B7E8"/>
</g>
</g>
</svg>
