<svg width="36" height="36" viewBox="0 0 36 36" fill="none" xmlns="http://www.w3.org/2000/svg">
<g id="Group">
<g id="Layer_90">
<path id="Shape" fill-rule="evenodd" clip-rule="evenodd" d="M35.5 30.25V5.75C35.5 2.85051 33.1495 0.5 30.25 0.5H5.75C2.85051 0.5 0.5 2.85051 0.5 5.75V30.25C0.5 33.1495 2.85051 35.5 5.75 35.5H30.25C33.1495 35.5 35.5 33.1495 35.5 30.25ZM16.2399 9.25C16.2399 9.71662 16.4262 10.1639 16.7575 10.4925C17.2582 10.9973 18.0145 11.149 18.6711 10.8764C19.3277 10.6038 19.7541 9.96096 19.75 9.25C19.7541 8.53904 19.3277 7.89623 18.6711 7.6236C18.0145 7.35097 17.2582 7.50269 16.7575 8.0075C16.4262 8.33609 16.2399 8.78338 16.2399 9.25ZM32 5.75C32 4.7835 31.2165 4 30.25 4H5.75C4.7835 4 4 4.7835 4 5.75V30.25C4 31.2165 4.7835 32 5.75 32H30.25C31.2165 32 32 31.2165 32 30.25V5.75ZM19.75 25H19.995C20.9615 25 21.745 25.7835 21.745 26.75C21.745 27.7165 20.9615 28.5 19.995 28.5H16.005C15.0385 28.5 14.255 27.7165 14.255 26.75C14.255 25.7835 15.0385 25 16.005 25H16.25V16.25C15.2835 16.25 14.5 15.4665 14.5 14.5C14.5 13.5335 15.2835 12.75 16.25 12.75H18C18.9665 12.75 19.75 13.5335 19.75 14.5V25Z" fill="#C0B7E8"/>
</g>
</g>
</svg>
