<svg width="22" height="21" viewBox="0 0 22 21" fill="none" xmlns="http://www.w3.org/2000/svg">
<g id="Group">
<g id="Layer_86">
<g id="Shape">
<path fill-rule="evenodd" clip-rule="evenodd" d="M2 3H20C20.5523 3 21 2.55228 21 2C21 1.44772 20.5523 1 20 1H2C1.44772 1 1 1.44772 1 2C1 2.55228 1.44772 3 2 3ZM21 19C21 19.5523 20.5523 20 20 20H2C1.44772 20 1 19.5523 1 19C1 18.4477 1.44772 18 2 18H20C20.5523 18 21 18.4477 21 19ZM2 10H20C20.5523 10 21 10.4477 21 11C21 11.5523 20.5523 12 20 12H2C1.44772 12 1 11.5523 1 11C1 10.4477 1.44772 10 2 10Z" fill="black"/>
<path d="M20 2.5H2V3.5H20V2.5ZM20.5 2C20.5 2.27614 20.2761 2.5 20 2.5V3.5C20.8284 3.5 21.5 2.82843 21.5 2H20.5ZM20 1.5C20.2761 1.5 20.5 1.72386 20.5 2H21.5C21.5 1.17157 20.8284 0.5 20 0.5V1.5ZM2 1.5H20V0.5H2V1.5ZM1.5 2C1.5 1.72386 1.72386 1.5 2 1.5V0.5C1.17157 0.5 0.5 1.17157 0.5 2H1.5ZM2 2.5C1.72386 2.5 1.5 2.27614 1.5 2H0.5C0.5 2.82843 1.17157 3.5 2 3.5V2.5ZM20 20.5C20.8284 20.5 21.5 19.8284 21.5 19H20.5C20.5 19.2761 20.2761 19.5 20 19.5V20.5ZM2 20.5H20V19.5H2V20.5ZM0.5 19C0.5 19.8284 1.17157 20.5 2 20.5V19.5C1.72386 19.5 1.5 19.2761 1.5 19H0.5ZM2 17.5C1.17157 17.5 0.5 18.1716 0.5 19H1.5C1.5 18.7239 1.72386 18.5 2 18.5V17.5ZM20 17.5H2V18.5H20V17.5ZM21.5 19C21.5 18.1716 20.8284 17.5 20 17.5V18.5C20.2761 18.5 20.5 18.7239 20.5 19H21.5ZM20 9.5H2V10.5H20V9.5ZM21.5 11C21.5 10.1716 20.8284 9.5 20 9.5V10.5C20.2761 10.5 20.5 10.7239 20.5 11H21.5ZM20 12.5C20.8284 12.5 21.5 11.8284 21.5 11H20.5C20.5 11.2761 20.2761 11.5 20 11.5V12.5ZM2 12.5H20V11.5H2V12.5ZM0.5 11C0.5 11.8284 1.17157 12.5 2 12.5V11.5C1.72386 11.5 1.5 11.2761 1.5 11H0.5ZM2 9.5C1.17157 9.5 0.5 10.1716 0.5 11H1.5C1.5 10.7239 1.72386 10.5 2 10.5V9.5Z" fill="black"/>
</g>
</g>
</g>
</svg>
