<svg width="36" height="36" viewBox="0 0 36 36" fill="none" xmlns="http://www.w3.org/2000/svg">
<g id="Group">
<g id="Layer_112">
<path id="Shape" fill-rule="evenodd" clip-rule="evenodd" d="M33.6275 6.83494L32.7 4.08744C31.9559 1.9828 29.9623 0.578836 27.73 0.587442H8.27002C6.03773 0.578836 4.04411 1.9828 3.30002 4.08744L2.37252 6.83494C1.19041 7.77044 0.500724 9.19494 0.500022 10.7024V11.8749C0.493521 14.2802 1.90728 16.4626 4.10502 17.4399C4.03509 17.6183 3.99947 17.8083 4.00002 17.9999V30.2499C4.00002 33.1494 6.35053 35.4999 9.25002 35.4999H26.75C29.6495 35.4999 32 33.1494 32 30.2499V17.9999C32.0006 17.8083 31.9649 17.6183 31.895 17.4399C34.0928 16.4626 35.5065 14.2802 35.5 11.8749V10.7024C35.4993 9.19494 34.8096 7.77044 33.6275 6.83494ZM6.60751 5.18992C6.85775 4.44552 7.57324 3.95899 8.35751 3.99992H27.73C28.5143 3.95899 29.2298 4.44552 29.48 5.18992L29.655 5.74992H6.43251L6.60751 5.18992ZM21.5 11.8749V9.24992H14.5V11.8749C14.5 13.3247 15.6753 14.4999 17.125 14.4999H18.875C20.3248 14.4999 21.5 13.3247 21.5 11.8749ZM4.00001 11.8749V10.7024C4.00001 9.90023 4.65032 9.24992 5.45251 9.24992H11V11.8749C11 13.3247 9.82476 14.4999 8.37501 14.4999H6.62501C5.17526 14.4999 4.00001 13.3247 4.00001 11.8749ZM16.25 26.7499V31.9999H19.75V26.7499C19.75 25.7834 18.9665 24.9999 18 24.9999C17.0335 24.9999 16.25 25.7834 16.25 26.7499ZM28.5 30.2499C28.5 31.2164 27.7165 31.9999 26.75 31.9999H23.25V26.7499C23.25 23.8504 20.8995 21.4999 18 21.4999C15.1005 21.4999 12.75 23.8504 12.75 26.7499V31.9999H9.25001C8.28351 31.9999 7.50001 31.2164 7.50001 30.2499V17.9999H8.37501C10.026 18.0077 11.6078 17.337 12.75 16.1449C13.8923 17.337 15.474 18.0077 17.125 17.9999H18.875C20.526 18.0077 22.1077 17.337 23.25 16.1449C24.3923 17.337 25.974 18.0077 27.625 17.9999H28.5V30.2499ZM29.375 14.4999C30.8248 14.4999 32 13.3247 32 11.8749V10.7024C32 9.90023 31.3497 9.24992 30.5475 9.24992H25V11.8749C25 13.3247 26.1753 14.4999 27.625 14.4999H29.375Z" fill="#C0B7E8"/>
</g>
</g>
</svg>
