<svg width="36" height="36" viewBox="0 0 36 36" fill="none" xmlns="http://www.w3.org/2000/svg">
<g id="Group">
<g id="Layer_26">
<path id="Shape" fill-rule="evenodd" clip-rule="evenodd" d="M26.75 9.25C26.75 4.41751 22.8325 0.5 18 0.5C13.1675 0.5 9.25 4.41751 9.25 9.25C9.25 14.0825 13.1675 18 18 18H16.25C7.55151 18 0.5 25.0515 0.5 33.75C0.5 34.7165 1.2835 35.5 2.25 35.5H33.75C34.7165 35.5 35.5 34.7165 35.5 33.75C35.5 25.0515 28.4485 18 19.75 18H18C20.3206 18 22.5462 17.0781 24.1872 15.4372C25.8281 13.7962 26.75 11.5706 26.75 9.25ZM16.25 21.5C10.1593 21.4984 4.99259 25.9718 4.1225 32H31.8775C31.0074 25.9718 25.8407 21.4984 19.75 21.5H16.25ZM12.75 9.25C12.75 12.1495 15.1005 14.5 18 14.5C19.3924 14.5 20.7277 13.9469 21.7123 12.9623C22.6969 11.9777 23.25 10.6424 23.25 9.25C23.25 6.3505 20.8995 4 18 4C15.1005 4 12.75 6.3505 12.75 9.25Z" fill="#C0B7E8"/>
</g>
</g>
</svg>
