<svg xmlns="http://www.w3.org/2000/svg" width="48" height="46" viewBox="0 0 48 46" fill="none">
  <g opacity="0.5">
    <path d="M29.0983 20.5417L21.9722 21.5658C18.904 22.0267 16.4792 24.5358 16.0338 27.7105L15.044 35.0841C14.9946 35.4938 14.4007 35.4938 14.3512 35.0841L13.3615 27.7105C12.9161 24.5358 10.4912 22.0267 7.42305 21.5658L0.296922 20.5417C-0.0989739 20.4905 -0.0989739 19.876 0.296922 19.8248L7.42305 18.8007C10.4912 18.3399 12.9161 15.8308 13.3615 12.656L14.3512 5.28242C14.4007 4.87278 14.9946 4.87278 15.044 5.28242L16.0338 12.656C16.4792 15.8308 18.904 18.3399 21.9722 18.8007L29.0983 19.8248C29.4942 19.876 29.4942 20.4905 29.0983 20.5417Z" fill="#D9D9D9"/>
    <path d="M20.8838 35.4429L25.5356 34.7772C27.5646 34.47 29.1481 32.8314 29.4451 30.7319L30.0884 25.9186C30.1379 25.6114 30.5338 25.6114 30.5833 25.9186L31.2266 30.7319C31.5235 32.8314 33.1071 34.47 35.1361 34.7772L39.7878 35.4429C40.0848 35.4941 40.0848 35.9037 39.7878 35.9549L35.1361 36.6206C33.1071 36.9278 31.5235 38.5664 31.2266 40.6658L30.5833 45.4792C30.5338 45.7864 30.1379 45.7864 30.0884 45.4792L29.4451 40.6146C29.1481 38.5152 27.5646 36.8766 25.5356 36.5694L20.8838 35.9037C20.5869 35.9037 20.5869 35.4941 20.8838 35.4429Z" fill="#D9D9D9"/>
    <path d="M46.7647 12.7076L41.2221 13.5269C38.7973 13.8854 36.9168 15.8312 36.5703 18.3403L35.7786 24.0753C35.7291 24.4337 35.2837 24.4337 35.2342 24.0753L34.4424 18.3403C34.096 15.8312 32.2155 13.8854 29.7906 13.5269L24.2481 12.7076C23.9017 12.6564 23.9017 12.1956 24.2481 12.1444L29.7906 11.3251C32.2155 10.9666 34.096 9.02082 34.4424 6.51175L35.2342 0.776714C35.2837 0.418274 35.7291 0.418274 35.7786 0.776714L36.5703 6.51175C36.9168 9.02082 38.7973 10.9666 41.2221 11.3251L46.7647 12.1444C47.1111 12.1956 47.1111 12.6564 46.7647 12.7076Z" fill="#D9D9D9"/>
  </g>
</svg>