<svg width="24" height="24" viewBox="0 0 24 24" fill="none" xmlns="http://www.w3.org/2000/svg">
<g id="Group">
<g id="Layer_53">
<path id="Shape" fill-rule="evenodd" clip-rule="evenodd" d="M2.69313 8.4092C2.66906 8.7177 2.76854 9.02313 2.96967 9.25828C3.17079 9.49345 3.45709 9.6391 3.76559 9.66316C4.0741 9.68723 4.37952 9.58775 4.61467 9.38662L10.833 4.04328V17.8333C10.833 18.4776 11.3553 19 11.9997 19C12.644 19 13.1663 18.4776 13.1663 17.8333V4.04328L19.4313 9.38662C19.921 9.80543 20.6575 9.74798 21.0763 9.25828C21.4952 8.76859 21.4377 8.0321 20.948 7.61328L12.7813 0.613283C12.7232 0.571488 12.6606 0.536273 12.5947 0.508283L12.4547 0.41495C12.1775 0.304555 11.8685 0.304555 11.5913 0.41495L11.4513 0.508283C11.3854 0.536273 11.3228 0.571488 11.2647 0.613283L3.09801 7.61328C2.86284 7.8144 2.71719 8.1007 2.69313 8.4092ZM21.333 18.9999C21.333 18.3556 21.8553 17.8333 22.4997 17.8333C23.144 17.8333 23.6663 18.3556 23.6663 18.9999V21.3333C23.5606 22.7092 22.3723 23.747 20.9947 23.6666H3.00467C1.62702 23.747 0.438776 22.7092 0.333008 21.3333V18.9999C0.333008 18.3556 0.855342 17.8333 1.49967 17.8333C2.14401 17.8333 2.66634 18.3556 2.66634 18.9999V21.2516C2.77007 21.3079 2.88671 21.336 3.00467 21.3333H20.9947C21.1126 21.336 21.2293 21.3079 21.333 21.2516V18.9999Z" fill="#C0B7E8"/>
</g>
</g>
</svg>
